<?xml version="1.0" standalone="no"?>
<!DOCTYPE svg PUBLIC "-//W3C//DTD SVG 20010904//EN"
 "http://www.w3.org/TR/2001/REC-SVG-20010904/DTD/svg10.dtd">
<svg version="1.0" xmlns="http://www.w3.org/2000/svg"
 width="1000.000000pt" height="1000.000000pt" viewBox="0 0 1000.000000 1000.000000"
 preserveAspectRatio="xMidYMid meet">
<metadata>
Created by potrace 1.11, written by Peter Selinger 2001-2013
</metadata>
<g transform="translate(0.000000,1000.000000) scale(0.100000,-0.100000)"
fill="#000000" stroke="none">
<path d="M6518 8305 c-1 -2 -20 -6 -40 -9 -88 -14 -243 -81 -338 -146 -72 -49
-158 -71 -290 -75 -138 -4 -186 -10 -265 -37 -98 -32 -185 -87 -261 -162 -82
-82 -92 -97 -210 -311 -58 -105 -150 -339 -169 -429 -53 -254 -60 -321 -59
-536 0 -165 12 -262 50 -428 43 -187 85 -295 212 -547 l86 -170 1 -235 c2
-263 7 -311 41 -422 38 -121 91 -206 204 -328 52 -56 104 -148 124 -220 8 -30
22 -109 31 -175 8 -66 17 -129 19 -140 2 -11 7 -49 11 -85 3 -36 8 -72 10 -80
2 -8 7 -40 10 -70 3 -30 8 -66 10 -80 4 -26 32 -234 41 -305 2 -22 7 -51 9
-65 2 -14 7 -49 10 -79 4 -30 8 -61 10 -70 1 -9 6 -43 10 -76 25 -225 110
-364 274 -448 58 -30 83 -40 141 -54 33 -8 158 -4 203 6 90 21 158 61 283 167
67 57 586 496 654 553 30 25 72 62 95 82 22 19 83 71 135 115 52 43 108 90
125 104 16 14 82 77 146 141 311 310 536 674 687 1114 29 84 82 287 96 365 3
19 8 46 11 60 3 14 8 45 11 70 3 25 7 56 10 70 18 106 24 437 11 595 -37 432
-147 827 -337 1205 -63 126 -194 341 -263 432 -105 139 -246 219 -412 233
-165 14 -229 39 -302 119 -152 168 -220 223 -345 280 -115 53 -196 70 -345 72
-72 1 -133 1 -135 -1z m232 -240 c141 -25 257 -90 351 -197 124 -140 192 -193
294 -229 75 -26 84 -28 175 -35 127 -9 187 -32 258 -98 29 -28 128 -172 192
-281 l23 -40 -28 25 c-16 14 -35 30 -42 37 -81 73 -304 226 -314 216 -4 -5
-32 -51 -62 -104 l-54 -96 55 -33 c286 -171 533 -458 720 -836 58 -118 64
-140 88 -314 14 -102 19 -199 19 -355 0 -167 -10 -360 -20 -376 -3 -3 -7 -31
-11 -60 -3 -30 -8 -57 -10 -60 -2 -4 -6 -24 -10 -45 -8 -57 -40 -178 -69 -264
l-25 -75 6 65 c4 36 9 79 11 95 9 69 11 555 3 615 -23 150 -20 137 -50 262
-101 432 -358 842 -675 1078 -173 128 -426 236 -625 265 -25 4 -70 11 -100 15
-58 8 -308 6 -350 -4 -14 -3 -41 -8 -60 -10 -113 -16 -283 -73 -415 -139 -68
-34 -209 -120 -225 -137 -3 -3 -32 -27 -65 -55 -233 -194 -406 -477 -466 -760
-7 -33 -14 -63 -15 -67 -1 -5 -2 -25 -3 -45 -2 -54 -15 -32 -50 82 -36 117
-59 221 -67 308 -6 61 -4 65 45 162 157 304 416 558 738 723 95 49 331 134
403 146 19 3 46 8 60 11 135 29 342 36 499 18 58 -7 107 -11 108 -9 2 2 6 16
9 32 2 16 9 49 14 74 5 25 11 62 12 84 3 32 0 39 -17 42 -268 43 -613 22 -856
-53 -30 -9 -59 -17 -65 -19 -30 -5 -209 -81 -285 -120 -97 -50 -252 -150 -325
-209 -103 -84 -249 -229 -289 -286 -29 -41 -36 -36 -21 16 8 25 12 45 10 45
-8 0 81 242 118 320 165 345 290 448 545 449 48 0 112 3 142 6 80 8 205 53
275 98 111 73 210 111 331 130 29 4 124 0 165 -8z m143 -1070 c364 -64 650
-253 859 -565 220 -329 323 -671 322 -1070 -1 -110 -11 -320 -18 -380 -3 -19
-7 -60 -11 -90 -3 -30 -8 -71 -10 -90 -3 -19 -7 -55 -10 -80 -3 -25 -7 -56
-10 -70 -2 -14 -6 -50 -10 -80 -13 -115 -16 -136 -20 -160 -2 -14 -7 -50 -10
-80 -4 -30 -8 -68 -11 -85 -4 -27 -57 -113 -105 -169 -114 -136 -171 -197
-270 -291 -71 -66 -105 -96 -359 -310 -96 -81 -186 -157 -200 -169 -14 -11
-54 -46 -90 -76 -35 -30 -74 -63 -85 -72 -11 -9 -112 -95 -225 -190 -113 -95
-223 -182 -245 -192 -46 -22 -129 -25 -191 -8 -22 6 -59 28 -82 48 -67 57 -88
109 -107 269 -3 28 -8 61 -10 75 -2 14 -6 48 -9 75 -4 28 -8 61 -11 75 -2 14
-7 48 -10 75 -7 56 -10 79 -25 185 -5 41 -12 91 -14 110 -11 85 -18 144 -36
270 -10 74 -22 160 -25 190 -26 212 -89 355 -222 502 -81 89 -127 170 -152
270 -17 67 -18 113 -16 573 1 275 5 511 9 525 9 36 17 84 16 90 -3 11 64 189
93 245 81 161 237 338 390 443 151 104 368 190 526 208 31 3 58 8 60 10 10 9
256 0 324 -11z"/>
<path d="M6600 6769 c-137 -14 -238 -43 -362 -104 -224 -111 -409 -319 -482
-541 -17 -51 -19 -60 -36 -144 -5 -25 -8 -202 -7 -395 l2 -349 113 -1 c61 0
113 2 113 5 1 3 3 158 4 345 3 306 5 348 24 418 91 346 450 575 828 527 230
-29 430 -161 573 -377 78 -118 162 -304 185 -411 3 -12 7 -31 10 -43 2 -11 6
-28 9 -37 3 -9 8 -37 11 -62 3 -25 8 -61 11 -80 6 -43 6 -288 0 -350 -2 -25
-7 -82 -11 -127 -3 -46 -8 -92 -10 -102 -2 -11 -6 -46 -10 -78 -3 -32 -10 -89
-16 -127 -5 -38 -12 -92 -14 -121 -3 -28 -7 -62 -10 -74 -2 -12 -7 -49 -10
-82 -4 -33 -8 -68 -10 -77 -1 -9 -6 -44 -10 -78 -5 -47 -3 -61 7 -61 7 -1 42
-4 78 -9 36 -5 83 -8 105 -9 l40 0 7 55 c3 30 9 80 13 110 8 68 11 94 30 245
9 66 18 140 21 165 3 25 7 55 9 68 2 13 7 51 10 85 3 34 8 80 11 102 9 80 12
442 3 500 -4 33 -11 83 -15 110 -3 28 -8 53 -10 56 -2 3 -6 19 -8 36 -11 61
-74 240 -114 324 -110 228 -252 405 -414 517 -188 129 -441 194 -668 171z"/>
<path d="M5710 4881 l0 -118 118 1 117 1 1 118 1 117 -118 0 -119 0 0 -119z"/>
<path d="M2636 7473 c-132 -26 -271 -124 -336 -238 -30 -53 -57 -136 -65 -200
-3 -21 -7 -50 -9 -64 -3 -14 -7 -51 -11 -81 -4 -30 -8 -66 -10 -80 -2 -14 -6
-43 -9 -65 -3 -22 -12 -91 -21 -153 -8 -63 -17 -135 -20 -160 -3 -26 -7 -58
-10 -72 -2 -14 -7 -45 -10 -70 -4 -25 -8 -56 -10 -70 -2 -14 -7 -50 -10 -80
-3 -30 -10 -82 -15 -115 -10 -65 -18 -127 -25 -190 -12 -109 -67 -218 -164
-327 -102 -115 -151 -197 -191 -323 -21 -64 -23 -94 -27 -349 l-5 -279 -94
-190 c-85 -170 -179 -400 -191 -467 -2 -14 -10 -50 -18 -80 -17 -69 -32 -156
-42 -240 -13 -120 -7 -403 11 -495 2 -11 7 -40 11 -65 34 -221 133 -475 280
-725 145 -246 345 -363 630 -370 184 -4 206 -11 389 -118 132 -77 264 -113
423 -116 273 -5 496 104 692 338 77 91 152 125 300 136 202 14 347 105 478
300 247 368 436 822 503 1210 5 33 12 71 15 85 3 14 7 45 10 70 3 25 8 54 10
65 19 92 26 501 12 655 -64 670 -361 1301 -836 1770 -114 113 -123 121 -430
380 -112 95 -213 180 -225 190 -11 10 -118 100 -236 200 -118 100 -239 202
-269 228 -30 26 -64 54 -75 63 -110 84 -262 120 -400 92z m207 -252 c23 -11
53 -31 67 -43 14 -13 84 -72 155 -132 72 -60 153 -128 180 -152 28 -24 214
-181 414 -351 436 -369 493 -423 699 -678 78 -97 263 -421 319 -560 80 -198
144 -421 168 -585 3 -19 7 -44 10 -55 3 -18 8 -63 21 -195 5 -55 4 -328 -1
-395 -5 -65 -25 -228 -31 -260 -2 -11 -8 -45 -14 -75 -29 -168 -96 -399 -165
-575 -89 -221 -316 -610 -400 -683 -60 -53 -136 -81 -225 -83 -158 -4 -338
-87 -425 -197 -78 -98 -165 -171 -247 -210 -95 -46 -157 -62 -248 -65 -127 -5
-246 28 -372 105 -174 106 -236 123 -478 132 -52 2 -121 11 -152 20 -60 18
-147 71 -186 115 -81 89 -212 339 -270 516 -69 209 -91 358 -87 585 4 206 15
281 65 461 33 119 67 201 179 424 l105 210 1 275 c1 230 4 285 19 335 26 89
70 165 141 243 125 140 187 259 221 426 2 11 6 47 9 80 3 34 7 68 10 76 2 8 6
35 9 60 3 25 10 79 16 120 11 75 16 112 25 193 3 23 7 53 10 67 2 14 7 45 10
70 3 25 7 61 10 80 2 19 6 51 9 70 35 284 60 452 72 484 30 80 98 141 184 166
41 12 129 2 173 -19z"/>
<path d="M2880 6772 c-90 -12 -176 -65 -226 -139 -32 -49 -52 -115 -78 -258
-3 -16 -8 -41 -10 -55 -37 -201 -44 -269 -51 -525 -3 -93 -7 -192 -11 -220 -8
-69 -23 -176 -28 -200 -3 -11 -12 -53 -20 -94 -17 -79 -52 -203 -66 -236 -27
-63 -96 -277 -125 -390 -74 -286 -100 -517 -100 -885 0 -198 4 -268 19 -370 7
-43 36 -163 55 -225 94 -303 327 -533 628 -620 223 -65 469 -44 658 56 229
121 350 217 442 351 92 134 125 216 169 427 17 81 36 146 49 165 12 17 40 58
62 91 132 193 218 405 258 640 20 115 26 321 13 415 -5 36 -10 79 -13 95 -2
17 -9 53 -15 80 -6 28 -13 57 -15 65 -7 32 -56 177 -72 210 -9 19 -36 77 -61
129 -38 79 -46 107 -53 181 -15 166 -54 235 -242 424 -139 140 -173 170 -406
370 -64 54 -141 120 -171 146 -132 113 -211 181 -290 249 -115 100 -203 136
-300 123z m89 -255 c9 -8 68 -58 131 -112 63 -54 120 -103 126 -109 7 -6 20
-18 30 -26 69 -57 233 -196 251 -214 12 -11 28 -26 35 -31 142 -110 461 -425
487 -480 11 -23 22 -73 25 -111 8 -107 15 -130 78 -263 113 -237 152 -393 152
-621 1 -192 -11 -274 -64 -433 -43 -128 -81 -202 -178 -350 -85 -130 -115
-195 -127 -277 -4 -24 -8 -47 -10 -50 -2 -3 -6 -21 -9 -40 -34 -207 -139 -367
-317 -485 -271 -181 -511 -209 -759 -89 -79 39 -108 60 -180 133 -68 69 -94
103 -127 171 -22 47 -44 98 -48 115 -6 29 -6 28 44 -18 101 -94 231 -164 388
-209 62 -17 105 -22 208 -22 150 -1 194 5 302 40 60 19 258 117 282 139 3 4
-91 165 -112 192 -7 10 -19 7 -51 -13 -223 -139 -441 -163 -668 -73 -157 62
-305 210 -368 369 -44 111 -82 264 -83 335 -1 68 11 254 18 265 1 3 6 28 9 55
4 28 11 68 16 90 5 22 12 56 15 75 3 19 10 51 15 70 5 19 15 62 24 95 8 33 44
143 79 245 58 167 117 383 131 483 4 20 8 54 11 75 3 20 8 46 10 58 5 23 12
154 20 389 3 83 7 161 9 175 3 14 7 48 10 77 3 29 20 121 36 205 25 129 34
156 55 175 27 24 76 24 104 0z"/>
</g>
</svg>
